{"asset":{"version":"2.0","generator":"agv-map-3d/scripts/generate-assets.mjs"},"scene":0,"scenes":[{"nodes":[0]}],"nodes":[{"mesh":0,"name":"charging-pile"}],"meshes":[{"name":"charging-pile","primitives":[{"attributes":{"POSITION":0,"NORMAL":1},"indices":2,"material":0},{"attributes":{"POSITION":3,"NORMAL":4},"indices":5,"material":1},{"attributes":{"POSITION":6,"NORMAL":7},"indices":8,"material":2}]}],"materials":[{"name":"pile-body","pbrMetallicRoughness":{"baseColorFactor":[0.72,0.74,0.76,1],"metallicFactor":0,"roughnessFactor":0.8}},{"name":"pile-screen","pbrMetallicRoughness":{"baseColorFactor":[0.1,0.14,0.18,1],"metallicFactor":0,"roughnessFactor":0.4},"emissiveFactor":[0.05,0.1,0.14]},{"name":"pile-accent","pbrMetallicRoughness":{"baseColorFactor":[0.2,0.78,0.88,1],"metallicFactor":0,"roughnessFactor":0.5},"emissiveFactor":[0.2,0.6,0.7]}],"accessors":[{"bufferView":0,"componentType":5126,"count":48,"type":"VEC3","min":[-0.2800000011920929,0,-0.2199999988079071],"max":[0.2800000011920929,1.3300000429153442,0.2199999988079071]},{"bufferView":1,"componentType":5126,"count":48,"type":"VEC3"},{"bufferView":2,"componentType":5123,"count":72,"type":"SCALAR"},{"bufferView":3,"componentType":5126,"count":24,"type":"VEC3","min":[-0.15000000596046448,0.8799999952316284,0.15000000596046448],"max":[0.15000000596046448,1.2400000095367432,0.17000000178813934]},{"bufferView":4,"componentType":5126,"count":24,"type":"VEC3"},{"bufferView":5,"componentType":5123,"count":36,"type":"SCALAR"},{"bufferView":6,"componentType":5126,"count":24,"type":"VEC3","min":[-0.1599999964237213,0.7200000286102295,0.15000000596046448],"max":[0.1599999964237213,0.7799999713897705,0.16500000655651093]},{"bufferView":7,"componentType":5126,"count":24,"type":"VEC3"},{"bufferView":8,"componentType":5123,"count":36,"type":"SCALAR"}],"bufferViews":[{"buffer":0,"byteOffset":0,"byteLength":576,"target":34962},{"buffer":0,"byteOffset":576,"byteLength":576,"target":34962},{"buffer":0,"byteOffset":1152,"byteLength":144,"target":34963},{"buffer":0,"byteOffset":1296,"byteLength":288,"target":34962},{"buffer":0,"byteOffset":1584,"byteLength":288,"target":34962},{"buffer":0,"byteOffset":1872,"byteLength":72,"target":34963},{"buffer":0,"byteOffset":1944,"byteLength":288,"target":34962},{"buffer":0,"byteOffset":2232,"byteLength":288,"target":34962},{"buffer":0,"byteOffset":2520,"byteLength":72,"target":34963}],"buffers":[{"byteLength":2592,"uri":"data:application/octet-stream;base64,"}]}