{"asset":{"version":"2.0","generator":"agv-map-3d/scripts/generate-assets.mjs"},"scene":0,"scenes":[{"nodes":[0]}],"nodes":[{"mesh":0,"name":"roller-door-frame"}],"meshes":[{"name":"roller-door-frame","primitives":[{"attributes":{"POSITION":0,"NORMAL":1},"indices":2,"material":0}]}],"materials":[{"name":"door-frame","pbrMetallicRoughness":{"baseColorFactor":[0.79,0.8,0.83,1],"metallicFactor":0,"roughnessFactor":0.75}}],"accessors":[{"bufferView":0,"componentType":5126,"count":72,"type":"VEC3","min":[-1.7000000476837158,0,-0.15000000596046448],"max":[1.7000000476837158,3.299999952316284,0.15000000596046448]},{"bufferView":1,"componentType":5126,"count":72,"type":"VEC3"},{"bufferView":2,"componentType":5123,"count":108,"type":"SCALAR"}],"bufferViews":[{"buffer":0,"byteOffset":0,"byteLength":864,"target":34962},{"buffer":0,"byteOffset":864,"byteLength":864,"target":34962},{"buffer":0,"byteOffset":1728,"byteLength":216,"target":34963}],"buffers":[{"byteLength":1944,"uri":"data:application/octet-stream;base64,"}]}